<svg xmlns="http://www.w3.org/2000/svg" viewBox="0 0 640 360" fill="none">
  <rect width="640" height="360" rx="24" fill="#FFF6E5"/>
  <rect x="60" y="50" width="300" height="260" rx="16" fill="#fff" stroke="#E2E8F0" stroke-width="2"/>
  <rect x="80" y="74" width="160" height="14" rx="7" fill="#0F4C5C"/>
  <rect x="80" y="102" width="240" height="8" rx="4" fill="#CBD5E1"/>
  <rect x="80" y="120" width="200" height="8" rx="4" fill="#CBD5E1"/>
  <rect x="80" y="150" width="260" height="70" rx="10" fill="#E8F4F6"/>
  <rect x="96" y="168" width="120" height="10" rx="5" fill="#1A7A8C"/>
  <rect x="96" y="188" width="180" height="8" rx="4" fill="#94A3B8"/>
  <rect x="80" y="240" width="90" height="36" rx="18" fill="#0F4C5C"/>
  <rect x="400" y="70" width="180" height="220" rx="16" fill="#0F4C5C"/>
  <text x="490" y="110" text-anchor="middle" fill="#fff" font-family="Segoe UI,Arial" font-size="15" font-weight="700">SEO + IA</text>
  <rect x="425" y="130" width="130" height="10" rx="5" fill="#E8A838"/>
  <rect x="425" y="152" width="100" height="8" rx="4" fill="#C7E4EA"/>
  <rect x="425" y="172" width="115" height="8" rx="4" fill="#C7E4EA"/>
  <rect x="425" y="210" width="50" height="50" rx="8" fill="#1A7A8C"/>
  <rect x="485" y="220" width="50" height="40" rx="8" fill="#E8A838"/>
  <rect x="425" y="270" width="130" height="8" rx="4" fill="#C7E4EA"/>
</svg>
