<svg xmlns="http://www.w3.org/2000/svg" viewBox="0 0 640 360" fill="none">
  <rect width="640" height="360" rx="24" fill="#EEF2FF"/>
  <rect x="180" y="30" width="160" height="300" rx="28" fill="#0B1C24"/>
  <rect x="192" y="52" width="136" height="240" rx="12" fill="#F8FAFC"/>
  <rect x="210" y="70" width="100" height="12" rx="6" fill="#0F4C5C"/>
  <rect x="210" y="100" width="100" height="50" rx="10" fill="#E8F4F6"/>
  <rect x="210" y="164" width="100" height="50" rx="10" fill="#FFF6E5"/>
  <rect x="210" y="228" width="100" height="36" rx="10" fill="#0F4C5C"/>
  <rect x="230" y="300" width="60" height="8" rx="4" fill="#334155"/>
  <rect x="380" y="70" width="200" height="220" rx="16" fill="#fff" stroke="#E2E8F0" stroke-width="2"/>
  <text x="480" y="110" text-anchor="middle" fill="#0F4C5C" font-family="Segoe UI,Arial" font-size="16" font-weight="700">MVP App</text>
  <rect x="405" y="130" width="150" height="10" rx="5" fill="#CBD5E1"/>
  <rect x="405" y="155" width="120" height="10" rx="5" fill="#CBD5E1"/>
  <rect x="405" y="190" width="150" height="40" rx="10" fill="#E8F4F6"/>
  <rect x="405" y="245" width="150" height="28" rx="14" fill="#1A7A8C"/>
</svg>
